# xmcd
#
# Track frame offsets:
#	150
#	16094
#	31079
#	46894
#	65769
#	81084
#	96764
#	114044
#	127502
#	146664
#
# Disc length: 2137 seconds
#
# Revision: 2
# Processed by: cddbd v1.5.2PL0 Copyright (c) Steve Scherf et al.
# Submitted via: EZCDAudioConverter 4.0.4.2
#
DISCID=6e08570a
DTITLE=Martina McBride - Reckless
DYEAR=2016
DGENRE=Country
TTITLE0=Reckless
TTITLE1=It Ain't Pretty
TTITLE2=Just Around the Corner
TTITLE3=Everybody Wants to Be Loved
TTITLE4=The Real Thing (with Buddy Miller)
TTITLE5=That's the Thing About Love
TTITLE6=Low All Afternoon
TTITLE7=Diamond (with Keith Urban)
TTITLE8=We'll Pick Up Where We Left Off
TTITLE9=You and You Alone
EXTD=
EXTT0=
EXTT1=
EXTT2=
EXTT3=
EXTT4=
EXTT5=
EXTT6=
EXTT7=
EXTT8=
EXTT9=
PLAYORDER=
